<svg width="1058" height="785" viewBox="0 0 1058 785" fill="none" xmlns="http://www.w3.org/2000/svg">
<g id="undraw_ride_a_bicycle_-2-yok 1" clip-path="url(#clip0_2_2)">
<path id="Vector" opacity="0.1" d="M152.802 125.432C147.322 132.082 145.212 141.432 142.852 150.222C123.852 221.062 77.0321 278.042 23.7121 318.742C1.13206 335.982 -26.3579 359.102 -21.4179 390.012C-18.7579 406.612 -7.08793 418.832 1.58207 432.352C19.7721 460.662 25.6721 499.142 17.0021 533.032C7.14206 571.592 -20.4179 607.572 -11.8879 646.562C-6.62794 670.562 11.2321 687.642 28.4021 702.322C55.1887 725.209 82.8287 746.649 111.322 766.642C130.422 780.042 150.742 793.082 173.002 794.782C192.602 796.282 211.802 788.832 230.412 781.482C246.672 775.052 263.342 768.362 276.472 755.482C285.042 747.072 291.872 736.222 301.392 729.342C323.752 713.182 352.472 723.422 378.112 730.342C438.612 746.582 503.362 740.652 560.932 713.602C649.242 672.102 716.552 584.952 802.932 538.192C840.072 518.082 880.472 505.602 914.862 479.702C934.237 464.956 950.887 446.938 964.062 426.462C990.062 386.352 1004.12 335.212 1000.06 285.152C996.002 235.092 973.252 186.852 937.522 158.592C899.272 128.342 850.962 122.692 807.442 104.532C762.502 85.7722 722.522 53.5322 678.012 33.4022C641.996 17.1588 602.8 9.18501 563.3 10.0658C523.8 10.9466 484.998 20.6596 449.742 38.4922C401.302 62.9922 352.202 120.152 298.252 124.492C259.812 127.492 182.822 89.0122 152.802 125.432Z" fill="#6C63FF"/>
<g id="right-wheel">
<path id="Vector_2" d="M680.42 715.39L674.16 617.49L674.03 617.28L667.71 619.48L638.62 704.29L592.37 671.49L666.06 618.08L666.13 617.87L666.55 617.72L671.3 614.27L594.06 570.96L575.13 591.76L578.13 611.26L666.93 612.84V614.84L576.45 613.22L573.05 591.11L598.94 562.66L637.66 517.49L638.35 519.36L646.55 510.36L677.09 515.83V514.62L679.09 514.68V516.19L724.45 524.31L682.12 608.96L675.95 613.43V613.93V614.49L773.76 580.41L762.15 671.62L679.15 618.75L676.23 617.11L725.17 696L680.42 715.39ZM676.42 621.05L682.27 712.43L722.32 695.05L676.42 621.05ZM595.85 671.49L637.64 701.12L664.98 621.38L595.85 671.49ZM678.17 615.83L680.26 617L760.61 668.2L771.41 583.33L678.17 615.83ZM671.07 608.63L673.58 612.68L674.02 612.36L677.02 517.83L647.28 512.49L639.12 521.49L671.07 608.63ZM595.68 569.58L670.52 611.58L669.22 609.45L637.64 523.18L600.44 564.06L595.68 569.58ZM679.05 518.19L676.05 610.88L680.57 607.6L721.48 525.78L679.05 518.19Z" fill="#535461"/>
<path id="Vector_3" d="M675.33 496.61C664.717 496.598 654.15 498.024 643.92 500.85C638.644 502.305 633.477 504.133 628.46 506.32C601.73 517.907 580.247 538.997 568.167 565.508C556.087 592.019 554.269 622.069 563.065 649.843C571.86 677.618 590.644 701.143 615.782 715.869C640.921 730.594 670.627 735.473 699.155 729.562C727.682 723.65 753.004 707.369 770.221 683.867C787.438 660.365 795.327 631.312 792.362 602.33C789.396 573.348 775.787 546.495 754.168 526.966C732.548 507.438 704.454 496.622 675.32 496.61H675.33ZM674.93 702.7C654.649 702.692 634.981 695.746 619.192 683.017C603.404 670.288 592.445 652.541 588.135 632.723C583.825 612.905 586.424 592.209 595.501 574.073C604.577 555.936 619.584 541.45 638.03 533.02C642.722 530.872 647.594 529.142 652.59 527.85C664.802 524.68 677.549 524.147 689.984 526.287C702.418 528.427 714.253 533.191 724.703 540.261C735.153 547.332 743.977 556.547 750.588 567.293C757.199 578.039 761.446 590.069 763.046 602.585C764.646 615.1 763.562 627.812 759.866 639.875C756.17 651.939 749.948 663.077 741.613 672.548C733.277 682.02 723.02 689.608 711.524 694.806C700.028 700.005 687.557 702.696 674.94 702.7H674.93Z" fill="#535461"/>
<path id="Vector_4" d="M674.93 626.67C682.005 626.67 687.74 620.935 687.74 613.86C687.74 606.785 682.005 601.05 674.93 601.05C667.855 601.05 662.12 606.785 662.12 613.86C662.12 620.935 667.855 626.67 674.93 626.67Z" fill="#535461"/>
</g>
<g id="left-wheel">
<path id="Vector_5" d="M256.725 716.778L250.455 618.838L250.325 618.628L244.005 620.828L214.925 705.678L168.675 672.888L242.345 619.478L242.415 619.268L242.835 619.118L247.585 615.668L170.345 572.358L151.425 593.158L154.425 612.658L243.245 614.278V616.278L152.765 614.658L149.345 592.518L175.245 564.058L213.995 518.858L214.685 520.728L222.885 511.728L253.345 517.188V515.978L255.345 516.038V517.548L300.705 525.668L258.415 610.278L252.245 614.748V615.248V615.808L350.045 581.728L338.435 672.938L255.435 620.068L252.515 618.428L301.455 697.308L256.725 716.778ZM252.725 622.438L258.575 713.818L298.625 696.438L252.725 622.438ZM172.145 672.868L213.935 702.498L241.275 622.758L172.145 672.868ZM254.465 617.208L256.555 618.378L336.905 669.578L347.705 584.708L254.465 617.208ZM247.365 610.008L249.875 614.058L250.315 613.738L253.315 519.208L223.575 513.888L215.415 522.888L247.365 610.008ZM171.945 570.948L246.785 612.948L245.485 610.818L213.905 524.548L176.715 565.418L171.945 570.948ZM255.345 519.558L252.345 612.278L256.865 608.998L297.775 527.178L255.345 519.558Z" fill="#535461"/>
<path id="Vector_6" d="M366.415 589.738C362.405 571.919 354.285 555.283 342.705 541.158C338.406 535.909 333.666 531.038 328.535 526.598C308.809 509.567 283.986 499.568 257.962 498.17C231.938 496.771 206.187 504.053 184.749 518.873C163.311 533.693 147.401 555.211 139.515 580.05C131.629 604.89 132.214 631.645 141.178 656.116C150.142 680.587 166.978 701.39 189.042 715.258C211.107 729.127 237.152 735.277 263.09 732.743C289.028 730.208 313.39 719.134 332.353 701.257C351.317 683.379 363.807 659.712 367.865 633.968C368.809 627.907 369.284 621.783 369.285 615.648C369.292 606.932 368.329 598.242 366.415 589.738ZM251.225 704.088C232.993 704.069 215.209 698.435 200.292 687.953C185.374 677.47 174.047 662.648 167.851 645.501C161.655 628.354 160.89 609.715 165.66 592.118C170.43 574.521 180.505 558.82 194.513 547.15C208.521 535.48 225.783 528.408 243.953 526.895C262.122 525.381 280.316 529.501 296.062 538.693C311.807 547.884 324.34 561.703 331.956 578.268C339.571 594.834 341.9 613.343 338.625 631.278C334.875 651.722 324.076 670.203 308.107 683.506C292.137 696.809 272.01 704.093 251.225 704.088V704.088Z" fill="#535461"/>
<path id="Vector_7" d="M251.225 628.058C258.3 628.058 264.035 622.323 264.035 615.248C264.035 608.174 258.3 602.438 251.225 602.438C244.15 602.438 238.415 608.174 238.415 615.248C238.415 622.323 244.15 628.058 251.225 628.058Z" fill="#535461"/>
</g>
<g id="man-bike">
<path id="Vector_8" d="M387.47 553.194L344.763 511.05L331.417 524.574L374.124 566.718L387.47 553.194Z" fill="#6C63FF"/>
<path id="Vector_9" opacity="0.1" d="M387.47 553.194L344.763 511.05L331.417 524.574L374.124 566.718L387.47 553.194Z" fill="black"/>
<path id="Vector_10" d="M354.95 490.881C354.95 490.881 379.74 477.801 389.32 469.381C395.087 464.335 401.288 459.808 407.85 455.851L438.95 436.921L503.95 431.921L506.95 442.921C506.95 442.921 511.95 458.921 461.95 472.921C411.95 486.921 386.95 508.921 386.95 508.921C386.95 508.921 354.95 519.881 354.95 490.881Z" fill="#DB8B8B"/>
<path id="Vector_11" opacity="0.1" d="M389.6 506.751C387.83 508.101 386.95 508.881 386.95 508.881C386.95 508.881 354.95 519.881 354.95 490.881C354.95 490.881 356.5 490.061 358.95 488.691C361.425 492.721 364.892 496.05 369.021 498.359C373.149 500.669 377.8 501.881 382.53 501.881H385.92L389.6 506.751Z" fill="black"/>
<path id="Vector_12" opacity="0.05" d="M506.01 448.441C503.23 454.331 493.64 464.011 461.95 472.881C421.34 484.251 397.22 500.881 389.6 506.751C387.83 508.101 386.95 508.881 386.95 508.881C386.95 508.881 354.95 519.881 354.95 490.881C354.95 490.881 356.5 490.061 358.95 488.691C366.38 484.621 382.11 475.691 389.29 469.341C395.056 464.294 401.257 459.766 407.82 455.811L438.92 436.881L450.5 435.991L503.92 431.881L506.92 442.881C506.92 442.881 507.62 445.031 506.01 448.441Z" fill="black"/>
<path id="Vector_13" d="M355.45 484.381L328.95 501.881L406.55 566.881C406.55 566.881 417.95 559.881 411.95 551.881C411.95 551.881 391.95 534.881 390.95 510.881L384.95 502.881H381.56C375.828 502.882 370.237 501.102 365.559 497.788C360.882 494.474 357.35 489.789 355.45 484.381V484.381Z" fill="#ABB1D1"/>
<path id="Vector_14" opacity="0.1" d="M506.01 448.441C490.01 440.711 450.95 439.881 450.95 439.881L450.53 435.991L503.95 431.881L506.95 442.881C506.95 442.881 507.62 445.031 506.01 448.441Z" fill="black"/>
<path id="Vector_15" d="M450.95 437.881C450.95 437.881 497.95 438.881 509.95 448.881L503.95 327.881H438.95L450.95 437.881Z" fill="#ABB1D1"/>
<path id="Vector_16" opacity="0.05" d="M450.95 437.381C450.95 437.381 497.95 438.381 509.95 448.381L503.95 327.381H438.95L450.95 437.381Z" fill="black"/>
<path id="Vector_17" d="M488.71 363.841C488.71 363.841 606.36 359.841 608.76 375.051C611.16 390.261 491.11 383.851 491.11 383.851C491.11 383.851 481.51 374.241 488.71 363.841Z" fill="#535461"/>
<path id="Vector_18" opacity="0.05" d="M488.71 363.841C488.71 363.841 606.36 359.841 608.76 375.051C611.16 390.261 491.11 383.851 491.11 383.851C491.11 383.851 481.51 374.241 488.71 363.841Z" fill="black"/>
<path id="Vector_19" d="M393.47 424.671H372.66V605.551H393.47V424.671Z" fill="#6C63FF"/>
<path id="Vector_20" opacity="0.1" d="M393.47 424.661V438.591C386.55 439.491 379.47 440.061 372.66 440.281V424.661H393.47Z" fill="black"/>
<path id="Vector_21" d="M391.91 409.671C388.99 409.445 386.086 409.054 383.21 408.501C371.93 406.341 343.49 401.811 335.84 409.501C326.24 419.101 329.44 435.911 355.05 438.311C380.66 440.711 424.68 434.311 433.49 424.701C433.49 424.661 417.56 411.641 391.91 409.671Z" fill="#535461"/>
<path id="Vector_22" d="M387.87 474.291L606.37 406.261L613.57 423.071L389.47 499.901L387.87 474.291Z" fill="#6C63FF"/>
<path id="Vector_23" d="M452.7 581.541L610.37 426.271L619.17 439.071L468.7 595.941L452.7 581.541Z" fill="#6C63FF"/>
<path id="Vector_24" opacity="0.1" d="M654.05 528.741C649.054 530.033 644.182 531.763 639.49 533.911L629.93 507.201C634.947 505.014 640.114 503.186 645.39 501.731L654.05 528.741Z" fill="black"/>
<path id="Vector_25" d="M680.8 607.151L669.6 613.551L591.46 395.221L587.96 385.451L606.37 375.041L610.98 389.421L680.8 607.151Z" fill="#6C63FF"/>
<path id="Vector_26" opacity="0.1" d="M610.98 389.421L591.46 395.221L587.96 385.451L606.37 375.041L610.98 389.421Z" fill="black"/>
<path id="Vector_27" d="M491.91 406.261L601.56 368.641C601.56 368.641 620.77 371.041 613.56 387.051L503.12 419.861C503.12 419.861 486.32 421.461 491.91 406.261Z" fill="#535461"/>
<path id="Vector_28" opacity="0.1" d="M368.26 614.751C368.259 620.885 367.784 627.01 366.84 633.071C357.24 632.381 347.32 631.381 337.6 630.381C339.759 618.49 339.491 606.285 336.81 594.501C346.28 592.501 355.95 590.591 365.39 588.861C367.303 597.358 368.265 606.041 368.26 614.751V614.751Z" fill="black"/>
<path id="Vector_29" opacity="0.1" d="M393.47 584.271V605.541H372.66V587.541C379.86 586.291 386.86 585.181 393.47 584.271Z" fill="black"/>
<path id="Vector_30" d="M259.01 614.381C259.01 614.381 427.09 570.381 440.69 587.171C454.29 603.961 468.7 626.381 426.32 634.381C383.94 642.381 255.84 620.771 255.84 620.771L259.01 614.381Z" fill="#6C63FF"/>
<path id="Vector_31" opacity="0.1" d="M341.68 540.261L320.32 559.811C316.537 554.955 312.261 550.504 307.56 546.531L327.5 525.701C332.634 530.14 337.378 535.011 341.68 540.261V540.261Z" fill="black"/>
<path id="Vector_32" d="M253 604.26L378.65 473L382.66 503.41L259.4 616.26L253 604.26Z" fill="#6C63FF"/>
<path id="Vector_33" opacity="0.1" d="M251.81 627.161C258.885 627.161 264.62 621.426 264.62 614.351C264.62 607.276 258.885 601.541 251.81 601.541C244.735 601.541 239 607.276 239 614.351C239 621.426 244.735 627.161 251.81 627.161Z" fill="black"/>
<path id="Vector_34" opacity="0.1" d="M675.6 625.961C682.675 625.961 688.41 620.226 688.41 613.151C688.41 606.076 682.675 600.341 675.6 600.341C668.525 600.341 662.79 606.076 662.79 613.151C662.79 620.226 668.525 625.961 675.6 625.961Z" fill="black"/>
<path id="Vector_35" opacity="0.1" d="M448.69 627.161C462.834 627.161 474.3 615.695 474.3 601.551C474.3 587.407 462.834 575.941 448.69 575.941C434.546 575.941 423.08 587.407 423.08 601.551C423.08 615.695 434.546 627.161 448.69 627.161Z" fill="black"/>
<path id="Vector_36" d="M450.3 627.161C464.444 627.161 475.91 615.695 475.91 601.551C475.91 587.407 464.444 575.941 450.3 575.941C436.156 575.941 424.69 587.407 424.69 601.551C424.69 615.695 436.156 627.161 450.3 627.161Z" fill="#535461"/>
<path id="Vector_37" d="M443.462 599.627L443.454 599.633C440.447 601.882 439.832 606.143 442.081 609.151L462.407 636.331C464.656 639.339 468.917 639.954 471.925 637.705L471.933 637.699C474.941 635.449 475.555 631.188 473.306 628.181L452.98 601C450.731 597.993 446.47 597.378 443.462 599.627Z" fill="#6C63FF"/>
<path id="Vector_38" d="M565.95 245.881L563.57 275.991C563.296 279.805 563.346 283.635 563.72 287.441C564.03 290.811 563.72 296.711 560.42 305.711C556.183 317.208 553.993 329.358 553.95 341.611V375.881L530.95 371.881C530.95 371.881 531.95 323.881 527.95 315.881C523.95 307.881 530.95 236.881 530.95 236.881L565.95 245.881Z" fill="#DB8B8B"/>
<path id="Vector_39" opacity="0.05" d="M564.77 260.801L563.57 275.991C563.3 279.802 563.353 283.629 563.73 287.431C564.04 290.801 563.73 296.701 560.43 305.711C556.193 317.208 554.003 329.358 553.96 341.611V375.881L530.96 371.881C530.96 371.881 531.96 323.881 527.96 315.881C525.13 310.211 527.81 272.941 529.62 251.671C530.37 242.921 530.96 236.881 530.96 236.881L565.96 245.881L564.77 260.801Z" fill="black"/>
<path id="Vector_40" d="M451.97 475.881L443.32 525.081C442.229 531.65 440.556 538.109 438.32 544.381C433.25 558.241 436.49 577.671 438.95 588.271C440.04 592.951 440.95 595.911 440.95 595.911L414.95 609.911L406.95 603.911V599.911L405.95 510.911C399.95 496.911 401.95 475.911 405.95 467.911C407.087 465.282 407.887 462.52 408.33 459.691C410.33 448.971 410.95 433.911 410.95 433.911C410.95 433.911 426.95 406.911 445.95 424.911C452.95 431.541 455.61 440.211 456.17 448.511C457.15 462.721 451.97 475.881 451.97 475.881Z" fill="#DB8B8B"/>
<path id="Vector_41" opacity="0.1" d="M456.17 448.481C442.3 456.721 418.17 459.051 408.33 459.661C410.33 448.941 410.95 433.881 410.95 433.881C410.95 433.881 426.95 406.881 445.95 424.881C452.95 431.511 455.61 440.181 456.17 448.481Z" fill="black"/>
<path id="Vector_42" d="M489.95 423.881C479.316 429.544 469.267 436.243 459.95 443.881C443.95 456.881 403.95 457.881 403.95 457.881V442.881C404.95 424.881 387.95 404.881 364.95 348.881C350.26 313.121 354.33 292.881 359.19 282.881C361.95 277.231 364.95 274.881 364.95 274.881L489.95 298.881L494.42 312.281L503.95 340.881C503.95 340.881 468.95 342.881 462.95 345.881C456.95 348.881 460.95 375.881 460.95 375.881C454.95 403.881 489.95 423.881 489.95 423.881Z" fill="#ABB1D1"/>
<path id="Vector_43" opacity="0.1" d="M565.95 245.881L564.77 260.801C547.37 265.801 534.95 249.881 534.95 249.881C533.135 250.367 531.352 250.965 529.61 251.671C530.36 242.921 530.95 236.881 530.95 236.881L565.95 245.881Z" fill="black"/>
<path id="Vector_44" opacity="0.1" d="M494.42 312.281C493.95 316.951 493.95 319.881 493.95 319.881C493.95 319.881 470.95 338.881 431.95 309.881C392.95 280.881 357.95 288.881 357.95 288.881C357.95 288.881 358.36 286.561 359.19 282.881C361.95 277.231 364.95 274.881 364.95 274.881L489.95 298.881L494.42 312.281Z" fill="black"/>
<path id="Vector_45" d="M579.43 206.831C576.82 227.181 575.95 252.831 575.95 252.831C552.95 270.831 534.95 247.831 534.95 247.831C513.23 253.661 503.02 272.671 498.21 289.261C495.634 298.235 494.202 307.498 493.95 316.831C493.95 316.831 487.87 321.831 476.67 322.831C466.08 323.721 450.9 320.961 431.95 306.831C392.95 277.831 357.95 285.831 357.95 285.831C357.95 285.831 364.95 245.831 380.95 233.831C396.95 221.831 408.95 206.831 428.95 160.831C448.95 114.831 489.95 125.831 489.95 125.831C489.95 125.831 491.95 116.831 528.95 125.831C537.962 128.193 546.304 132.612 553.32 138.741C573.11 155.381 582.71 181.191 579.43 206.831Z" fill="white"/>
<path id="Vector_46" d="M542.32 148.381C542.27 149.711 542.16 151.191 541.98 152.841C539.98 170.841 537.98 168.841 515.98 172.841C502.3 175.331 495.19 163.901 491.77 154.901C490.532 151.641 489.598 148.273 488.98 144.841L536.98 136.841C536.98 136.841 542.73 135.231 542.32 148.381Z" fill="#DB8B8B"/>
<path id="Vector_47" opacity="0.05" d="M498.21 289.311C495.634 298.285 494.202 307.548 493.95 316.881C493.95 316.881 487.87 321.881 476.67 322.881C476.354 322.244 476.113 321.573 475.95 320.881C473.95 311.881 458.95 295.881 458.95 295.881C448.95 286.881 446.95 270.881 446.95 270.881L430.45 222.381L424.95 217.881C424.95 217.881 447.95 199.881 467.95 214.881C487.95 229.881 481.95 261.881 481.95 261.881L485.95 272.881C490.1 276.381 494.32 282.551 498.21 289.311Z" fill="black"/>
<path id="Vector_48" d="M427.95 216.881L449.95 269.881C449.95 269.881 451.95 285.881 461.95 294.881C461.95 294.881 476.95 310.881 478.95 319.881C480.95 328.881 508.95 352.881 508.95 352.881C508.95 352.881 534.95 376.881 536.95 385.881C536.95 385.881 560.95 392.881 557.95 406.881C557.95 406.881 575.95 388.881 557.95 371.881C539.95 354.881 515.95 319.881 515.95 319.881C515.95 319.881 501.95 282.881 488.95 271.881L484.95 260.881C484.95 260.881 490.95 228.881 470.95 213.881C450.95 198.881 427.95 216.881 427.95 216.881Z" fill="#DB8B8B"/>
<path id="Vector_49" opacity="0.1" d="M440.95 595.881L414.95 609.881L406.95 603.881V599.881C415.934 599.243 424.663 596.609 432.5 592.171C434.9 590.811 437.16 589.471 438.97 588.291C440.02 592.921 440.95 595.881 440.95 595.881Z" fill="black"/>
<path id="Vector_50" opacity="0.1" d="M470.95 174.881L484.95 229.881C484.95 229.881 441.95 236.881 432.95 229.881C423.95 222.881 406.95 220.881 406.95 220.881C406.95 220.881 424.95 168.881 434.95 162.881C444.95 156.881 470.95 174.881 470.95 174.881Z" fill="black"/>
<path id="Vector_51" d="M470.95 172.881L484.95 227.881C484.95 227.881 441.95 234.881 432.95 227.881C423.95 220.881 406.95 218.881 406.95 218.881C406.95 218.881 424.95 166.881 434.95 160.881C444.95 154.881 470.95 172.881 470.95 172.881Z" fill="white"/>
<path id="Vector_52" opacity="0.1" d="M542.32 147.381C539.519 151.247 535.957 154.499 531.853 156.938C527.748 159.376 523.188 160.949 518.453 161.56C513.718 162.171 508.909 161.806 504.32 160.489C499.731 159.172 495.46 156.93 491.77 153.901C490.532 150.641 489.598 147.273 488.98 143.841L536.98 135.841C536.98 135.841 542.73 134.231 542.32 147.381Z" fill="black"/>
<path id="Vector_53" d="M548.95 125.881C548.95 135.163 545.262 144.066 538.699 150.63C532.135 157.193 523.233 160.881 513.95 160.881C504.667 160.881 495.765 157.193 489.201 150.63C482.637 144.066 478.95 135.163 478.95 125.881C478.95 125.301 478.95 124.721 478.95 124.141C479.181 114.858 483.09 106.048 489.816 99.6469C496.543 93.2463 505.537 89.7801 514.82 90.0108C524.103 90.2416 532.913 94.1503 539.314 100.877C545.714 107.604 549.181 116.598 548.95 125.881V125.881Z" fill="#DB8B8B"/>
<path id="Vector_54" opacity="0.1" d="M548.95 125.881C548.953 129.107 548.509 132.317 547.63 135.421C544.925 136.01 542.103 135.752 539.55 134.681C535.81 133.211 532.6 130.681 529.01 128.861C518.9 123.741 506.87 124.751 495.67 126.441C490.11 127.281 483.8 128.061 479.43 124.521C479.28 124.402 479.136 124.275 479 124.141C479.231 114.858 483.139 106.048 489.866 99.6469C496.593 93.2463 505.587 89.7801 514.87 90.0108C524.153 90.2416 532.963 94.1503 539.364 100.877C545.765 107.604 549.231 116.598 549 125.881H548.95Z" fill="black"/>
<path id="Vector_55" opacity="0.05" d="M385.45 233.381C385.45 233.381 411.45 240.381 419.45 258.381C427.45 276.381 449.09 279.671 449.09 279.671" fill="black"/>
<path id="Vector_56" d="M483.45 629.381H423.45V648.381H483.45V629.381Z" fill="#6C63FF"/>
<path id="Vector_57" opacity="0.1" d="M483.45 629.381H423.45V648.381H483.45V629.381Z" fill="black"/>
<path id="Vector_58" d="M432.46 594.121C437.83 591.121 442.54 588.121 442.95 586.881C442.95 586.881 456.5 601.181 468.57 605.621C472.628 607.12 476.514 609.051 480.16 611.381C484.94 614.381 491.76 617.911 497.95 617.911C497.95 617.911 511.95 629.911 484.95 631.911C457.95 633.911 394.95 626.911 394.95 626.911L398.95 601.911C410.637 602.596 422.274 599.891 432.46 594.121Z" fill="#ABB1D1"/>
</g>
<g id="man-hat">
<g id="hat">
<path id="Vector_59" d="M451.624 95.9267C453.754 102.607 463.984 102.817 469.234 107.737C471.964 110.297 473.234 114.077 476.234 116.357C480.404 119.537 486.424 118.837 491.734 118.077C502.424 116.557 513.904 115.647 523.544 120.257C526.964 121.887 530.034 124.167 533.604 125.497C537.174 126.827 541.604 126.987 544.504 124.627C546.824 122.737 547.674 119.627 549.774 117.547C551.404 115.907 553.674 114.987 555.534 113.547C559.614 110.467 561.374 105.447 562.534 100.647C564.934 90.7667 565.624 80.1167 561.534 70.7467C557.444 61.3767 547.604 53.7467 536.864 54.2367C533.574 54.3867 530.364 55.2367 527.084 55.5967C518.534 56.4667 510.084 53.5967 501.504 53.1067C499.015 52.8039 496.49 53.1483 494.174 54.1067C492.427 55.0775 490.92 56.4273 489.764 58.0567C485.836 63.2021 483.146 69.1836 481.904 75.5367C480.904 80.3267 480.854 84.6667 474.984 85.4067C468.314 86.2867 447.114 81.7967 451.624 95.9267Z" fill="#472727"/>
</g>
</g>
</g>
<defs>
<clipPath id="clip0_2_2">
<rect width="1057.7" height="784.98" fill="white"/>
</clipPath>
</defs>
</svg>
